<svg xmlns="http://www.w3.org/2000/svg" xmlns:xlink="http://www.w3.org/1999/xlink" viewBox="0 0 59 34">
  <path class="is-visible" d="M 24.654116,3.5346253 C 22.115391,3.356098 18.516778,3.9336996 15.474923,7.3341421 l -7.7911727,8.4912929 8.1509357,8.527474 c 2.465558,2.0964 4.517948,3.641419 9.409455,3.646283 l 0.0024,-0.03835 -11.856436,-12.365525 z"></path>
  <path class="is-visible" d="m 29.261791,3.4906267 c 3.619768,-0.028733 5.904449,-0.00646 9.599139,3.8160036 l 7.791173,8.4912937 -8.150936,8.527475 c -3.70787,3.791429 -5.962786,3.75239 -9.107516,3.678483 L 41.03901,15.800961 Z"></path>
  <rect class="is-visible" width="5.2475801" height="5.2475801" x="-7.9745011" y="24.136135" transform="matrix(-0.69006816,0.72374438,0.69006816,0.72374438,0,0)"></rect>
  <path class="just-stroke" d="m 28.010658,3.4872062 0.0022,6.1639343 5.484855,6.0647115 -5.372278,5.561146 -0.02472,6.730318"></path>
</svg>